<svg id="visual" viewBox="0 0 960 540" width="960" height="540" xmlns="http://www.w3.org/2000/svg" xmlns:xlink="http://www.w3.org/1999/xlink" version="1.1"><rect x="0" y="0" width="960" height="540" fill="#ffffff"></rect><path d="M0 312L22.8 308C45.7 304 91.3 296 137 296.2C182.7 296.3 228.3 304.7 274 304.5C319.7 304.3 365.3 295.7 411.2 292.5C457 289.3 503 291.7 548.8 295.5C594.7 299.3 640.3 304.7 686 301.2C731.7 297.7 777.3 285.3 823 276.2C868.7 267 914.3 261 937.2 258L960 255L960 541L937.2 541C914.3 541 868.7 541 823 541C777.3 541 731.7 541 686 541C640.3 541 594.7 541 548.8 541C503 541 457 541 411.2 541C365.3 541 319.7 541 274 541C228.3 541 182.7 541 137 541C91.3 541 45.7 541 22.8 541L0 541Z" fill="#33d2c2"></path><path d="M0 312L22.8 316.5C45.7 321 91.3 330 137 331.2C182.7 332.3 228.3 325.7 274 330.2C319.7 334.7 365.3 350.3 411.2 348.3C457 346.3 503 326.7 548.8 325C594.7 323.3 640.3 339.7 686 345.2C731.7 350.7 777.3 345.3 823 341.8C868.7 338.3 914.3 336.7 937.2 335.8L960 335L960 541L937.2 541C914.3 541 868.7 541 823 541C777.3 541 731.7 541 686 541C640.3 541 594.7 541 548.8 541C503 541 457 541 411.2 541C365.3 541 319.7 541 274 541C228.3 541 182.7 541 137 541C91.3 541 45.7 541 22.8 541L0 541Z" fill="#2bc3b3"></path><path d="M0 371L22.8 377.5C45.7 384 91.3 397 137 400.2C182.7 403.3 228.3 396.7 274 387.8C319.7 379 365.3 368 411.2 368C457 368 503 379 548.8 384.5C594.7 390 640.3 390 686 392.2C731.7 394.3 777.3 398.7 823 397.5C868.7 396.3 914.3 389.7 937.2 386.3L960 383L960 541L937.2 541C914.3 541 868.7 541 823 541C777.3 541 731.7 541 686 541C640.3 541 594.7 541 548.8 541C503 541 457 541 411.2 541C365.3 541 319.7 541 274 541C228.3 541 182.7 541 137 541C91.3 541 45.7 541 22.8 541L0 541Z" fill="#22b4a5"></path><path d="M0 418L22.8 422C45.7 426 91.3 434 137 435.3C182.7 436.7 228.3 431.3 274 426.5C319.7 421.7 365.3 417.3 411.2 416.7C457 416 503 419 548.8 418.2C594.7 417.3 640.3 412.7 686 414.2C731.7 415.7 777.3 423.3 823 428.2C868.7 433 914.3 435 937.2 436L960 437L960 541L937.2 541C914.3 541 868.7 541 823 541C777.3 541 731.7 541 686 541C640.3 541 594.7 541 548.8 541C503 541 457 541 411.2 541C365.3 541 319.7 541 274 541C228.3 541 182.7 541 137 541C91.3 541 45.7 541 22.8 541L0 541Z" fill="#19a597"></path><path d="M0 464L22.8 464.2C45.7 464.3 91.3 464.7 137 469.3C182.7 474 228.3 483 274 487.5C319.7 492 365.3 492 411.2 488.5C457 485 503 478 548.8 472.3C594.7 466.7 640.3 462.3 686 461.7C731.7 461 777.3 464 823 470C868.7 476 914.3 485 937.2 489.5L960 494L960 541L937.2 541C914.3 541 868.7 541 823 541C777.3 541 731.7 541 686 541C640.3 541 594.7 541 548.8 541C503 541 457 541 411.2 541C365.3 541 319.7 541 274 541C228.3 541 182.7 541 137 541C91.3 541 45.7 541 22.8 541L0 541Z" fill="#0f9689"></path></svg>