<?xml version="1.0" standalone="no"?>
<!DOCTYPE svg PUBLIC "-//W3C//DTD SVG 20010904//EN"
 "http://www.w3.org/TR/2001/REC-SVG-20010904/DTD/svg10.dtd">
<svg version="1.0" xmlns="http://www.w3.org/2000/svg"
 width="2000.000000pt" height="2000.000000pt" viewBox="0 0 2000.000000 2000.000000"
 preserveAspectRatio="xMidYMid meet">

<g transform="translate(0.000000,2000.000000) scale(0.100000,-0.100000)"
fill="#000000" stroke="none">
<path d="M16720 14795 l0 -215 55 0 55 0 0 215 0 215 -55 0 -55 0 0 -215z"/>
<path d="M16280 14740 l0 -160 55 0 55 0 0 160 0 160 -55 0 -55 0 0 -160z"/>
<path d="M16500 14715 l0 -135 55 0 55 0 0 135 0 135 -55 0 -55 0 0 -135z"/>
<path d="M16060 14685 l0 -105 55 0 55 0 0 105 0 105 -55 0 -55 0 0 -105z"/>
<path d="M17143 14375 c0 -8 4 -15 9 -15 4 0 8 7 8 15 0 8 -4 15 -8 15 -5 0
-9 -7 -9 -15z"/>
<path d="M4680 13960 l0 -160 128 0 c125 0 131 -1 192 -32 111 -55 262 -223
447 -498 39 -58 140 -211 226 -341 135 -207 231 -342 323 -456 l27 -33 -732 0
-731 0 0 170 0 170 -328 0 -327 0 -185 185 -185 185 -190 0 -190 0 178 -178
c97 -97 177 -181 177 -185 0 -4 -137 -6 -305 -5 l-305 3 0 -187 0 -188 260 0
260 0 1 28 c1 15 2 38 2 52 l2 25 283 3 282 2 1 -32 c4 -82 -30 -72 289 -78
l285 -5 0 -143 0 -142 903 0 c496 0 902 -2 902 -5 0 -3 -39 -52 -86 -108 -114
-135 -240 -313 -436 -614 -275 -424 -370 -562 -490 -710 -77 -95 -195 -213
-252 -252 l-46 -32 0 -79 c0 -44 3 -80 6 -80 10 0 68 34 91 53 12 11 27 16 33
12 12 -7 -47 -51 -62 -47 -5 1 -8 -3 -8 -9 0 -5 -4 -7 -10 -4 -5 3 -10 2 -10
-4 0 -5 -9 -12 -19 -16 -17 -5 -20 -17 -23 -90 -2 -47 1 -85 5 -85 4 0 35 12
69 26 122 51 264 165 403 321 149 167 200 240 671 954 293 445 501 675 671
742 23 9 71 19 107 23 63 6 66 8 67 33 0 14 6 84 13 154 6 70 10 130 7 132 -2
3 -124 5 -271 5 -265 0 -266 0 -317 25 -130 65 -271 233 -550 655 -351 531
-434 642 -584 786 -176 168 -289 214 -528 214 l-141 0 0 -160z m287 5 c28 -8
55 -14 60 -13 4 2 26 -8 48 -21 22 -14 43 -25 47 -25 3 -1 21 -14 40 -31 18
-16 38 -30 43 -30 6 -1 9 -5 8 -10 0 -6 5 -16 13 -23 8 -7 14 -10 14 -6 0 4
13 -5 30 -21 16 -15 27 -32 24 -37 -3 -4 -39 22 -80 59 -41 38 -92 77 -114 89
-22 12 -36 25 -32 29 4 5 -1 5 -10 2 -11 -4 -18 -2 -18 5 0 6 -2 9 -6 6 -3 -3
-26 1 -51 8 -29 9 -93 14 -170 14 -67 0 -123 4 -123 9 0 16 220 13 277 -4z
m362 -242 c5 -10 32 -42 60 -71 33 -36 48 -58 44 -69 -4 -9 -2 -14 3 -10 5 3
28 -20 49 -50 22 -31 59 -81 81 -112 23 -30 39 -61 37 -69 -3 -7 0 -12 8 -10
8 2 15 -7 17 -20 2 -13 8 -20 14 -16 6 4 8 2 5 -3 -4 -6 0 -17 9 -24 15 -12
54 -81 54 -95 0 -4 -9 1 -19 10 -11 10 -17 25 -14 34 4 10 2 13 -5 8 -7 -4
-18 6 -27 24 -26 50 -102 165 -119 179 -8 7 -12 19 -9 27 3 9 0 14 -8 12 -8
-2 -15 7 -17 20 -2 14 -8 20 -15 16 -7 -4 -9 -4 -5 0 3 4 -4 20 -17 34 -68 77
-86 102 -80 112 4 6 2 9 -3 8 -12 -4 -82 69 -74 77 10 10 21 5 31 -12z m523
-771 c-3 -10 -1 -13 6 -9 6 4 19 -5 30 -20 20 -28 22 -33 22 -55 0 -6 3 -8 7
-5 3 4 17 -9 31 -29 19 -28 21 -38 12 -47 -10 -9 -11 -9 -6 1 4 6 3 12 -3 12
-6 0 -13 11 -17 25 -4 14 -9 24 -11 21 -9 -9 -41 38 -36 52 3 7 0 12 -8 10 -7
-2 -25 20 -41 47 -34 61 -36 80 -4 41 14 -16 22 -36 18 -44z m131 -187 c-3
-10 -1 -15 7 -13 6 2 20 -12 29 -29 10 -18 21 -30 25 -26 3 3 6 2 6 -4 0 -6
17 -30 38 -53 20 -24 35 -50 34 -59 -2 -9 -1 -13 3 -9 4 3 27 -14 51 -38 47
-48 58 -72 24 -54 -11 6 -20 18 -20 27 0 9 -3 14 -6 10 -6 -6 -71 63 -66 71 2
2 -3 9 -11 15 -26 22 -109 127 -101 127 5 0 1 5 -8 11 -19 11 -25 39 -8 39 5
0 7 -7 3 -15z m440 -427 c15 -5 27 -14 27 -20 0 -5 4 -7 9 -4 5 3 24 -1 42 -9
19 -8 28 -14 20 -15 -8 0 -11 -3 -8 -7 4 -3 17 -1 30 6 27 14 102 11 102 -4 0
-7 -313 -10 -920 -10 -603 0 -922 3 -925 10 -3 7 273 12 815 15 469 3 810 9
798 14 -13 4 -23 12 -23 17 0 5 -7 9 -15 9 -8 0 -15 5 -15 11 0 7 7 8 18 4 9
-4 29 -12 45 -17z m624 -54 c3 -8 -27 -13 -89 -16 -103 -6 -120 -9 -129 -22
-4 -4 -9 -3 -13 3 -4 6 5 13 20 17 15 4 39 13 53 21 31 16 153 14 158 -3z
m-373 -119 c-4 -8 -10 -15 -15 -15 -5 0 -57 -47 -115 -105 -58 -58 -109 -105
-115 -105 -5 0 -8 -4 -6 -9 4 -15 -44 -72 -55 -65 -7 5 -9 2 -5 -9 4 -11 2
-14 -9 -10 -10 3 -12 0 -8 -10 3 -9 -3 -21 -15 -29 -12 -8 -18 -18 -14 -21 3
-4 2 -7 -3 -7 -5 0 -18 -16 -28 -35 -10 -19 -23 -32 -27 -29 -5 3 -9 -2 -9
-12 0 -20 -89 -140 -102 -136 -5 1 -8 -3 -6 -10 3 -17 -47 -100 -55 -91 -4 3
-8 1 -8 -5 -1 -7 -2 -17 -3 -22 0 -6 -6 -14 -12 -18 -6 -4 -21 -26 -34 -49
-13 -24 -28 -43 -32 -43 -5 0 -6 -4 -3 -10 3 -5 -1 -10 -10 -10 -13 0 -14 4
-5 20 6 11 15 20 21 20 6 0 8 4 5 9 -3 5 10 29 29 54 19 25 35 49 35 52 0 15
38 54 45 47 5 -4 5 1 2 10 -4 11 -2 17 6 15 7 -1 11 5 9 13 -2 8 4 20 13 26 9
7 16 15 15 19 -2 6 70 111 95 139 6 6 21 28 35 48 14 21 28 38 33 38 4 0 7 5
7 11 0 16 152 189 161 183 4 -2 10 5 14 15 3 11 15 23 26 26 10 4 17 10 14 15
-5 8 87 88 93 80 2 -3 8 3 13 13 12 21 31 23 23 2z m-840 -1100 c-42 -63 -81
-112 -86 -109 -9 6 21 64 34 64 4 0 8 6 8 13 0 8 9 22 20 32 11 10 20 24 20
32 0 7 5 13 11 13 5 0 7 5 3 12 -4 6 -3 8 4 4 6 -3 16 7 24 24 7 16 19 30 25
30 7 0 -21 -52 -63 -115z m-185 -270 c-12 -19 -25 -32 -30 -29 -5 3 -6 -2 -3
-10 3 -9 1 -16 -5 -16 -6 0 -11 -5 -11 -11 0 -10 -106 -147 -142 -182 -10 -10
-25 -29 -34 -42 -9 -14 -21 -22 -28 -18 -6 3 -8 2 -3 -2 9 -10 -33 -56 -44
-49 -5 3 -9 -1 -9 -9 0 -19 -26 -41 -34 -28 -3 5 11 24 32 42 20 18 37 35 37
38 0 10 50 56 58 54 4 -2 7 4 7 12 0 8 3 15 8 15 4 0 16 13 27 29 10 16 23 27
28 24 4 -3 7 1 5 8 -3 19 32 70 43 63 5 -3 9 -1 9 5 0 14 47 81 68 97 9 7 13
14 9 14 -9 0 15 29 25 30 4 0 -2 -16 -13 -35z"/>
<path d="M5865 12920 c3 -5 8 -10 11 -10 2 0 4 5 4 10 0 6 -5 10 -11 10 -5 0
-7 -4 -4 -10z"/>
<path d="M6455 12300 c-18 -8 -17 -9 8 -9 16 -1 26 3 22 9 -3 6 -7 10 -8 9 -1
0 -11 -4 -22 -9z"/>
<path d="M6938 12283 c7 -3 16 -2 19 1 4 3 -2 6 -13 5 -11 0 -14 -3 -6 -6z"/>
<path d="M6559 12083 c-13 -16 -12 -17 4 -4 9 7 17 15 17 17 0 8 -8 3 -21 -13z"/>
<path d="M6469 11993 c-13 -16 -12 -17 4 -4 16 13 21 21 13 21 -2 0 -10 -8
-17 -17z"/>
<path d="M6399 11913 c-13 -16 -12 -17 4 -4 16 13 21 21 13 21 -2 0 -10 -8
-17 -17z"/>
<path d="M15265 14113 c-189 -42 -365 -178 -565 -435 -40 -51 -142 -199 -227
-328 -357 -542 -442 -659 -575 -786 -45 -43 -102 -86 -131 -100 -48 -22 -65
-24 -202 -24 l-150 0 47 533 c55 630 57 671 25 718 -29 45 -80 69 -142 69
l-50 0 32 -21 c73 -47 83 -96 63 -314 -18 -204 -103 -1168 -131 -1490 -5 -66
-32 -372 -59 -680 -27 -308 -59 -666 -70 -795 -56 -649 -71 -808 -80 -841 -13
-46 -75 -112 -121 -126 l-34 -11 51 -1 c93 -2 168 40 203 112 16 35 26 113 55
452 20 226 41 457 46 515 10 104 42 471 103 1185 l32 370 220 -1 c202 0 224
-2 275 -22 121 -48 268 -188 442 -419 93 -124 166 -233 473 -700 292 -446 481
-674 671 -809 34 -24 65 -44 70 -44 5 0 8 90 7 200 l-2 201 -76 82 c-83 91
-198 242 -315 415 l-75 110 -79 4 c-55 2 -84 -1 -95 -10 -9 -8 -11 -11 -5 -8
13 7 70 -73 66 -92 -2 -7 3 -11 10 -10 7 2 14 -7 16 -20 2 -12 7 -20 11 -18 4
3 8 -1 8 -9 0 -28 -15 -14 -56 53 -60 97 -74 112 -110 112 l-31 0 0 201 c0
133 -4 208 -12 222 -46 87 -340 480 -397 531 -11 11 -21 23 -21 28 0 4 97 8
215 8 l214 0 -2 158 -2 157 -287 3 -287 2 80 103 c78 99 208 290 403 590 80
124 96 155 96 188 0 36 2 39 29 39 20 0 34 8 47 28 41 64 171 219 236 283 41
40 96 81 131 99 59 29 63 30 214 30 l153 0 0 160 0 160 -167 -1 c-93 -1 -177
-3 -188 -6z m291 -144 c4 -8 -202 -16 -284 -11 -12 0 -20 -3 -17 -9 7 -11 3
-11 -22 -2 -14 6 -10 10 22 19 48 13 293 16 301 3z m-330 -36 c-2 -2 -11 -5
-19 -7 -8 -1 -22 -8 -31 -15 -9 -7 -16 -10 -16 -5 0 5 -4 4 -8 -1 -4 -6 -34
-30 -67 -55 -60 -45 -99 -80 -90 -80 2 0 -6 -10 -18 -23 -12 -13 -25 -22 -29
-20 -4 2 -9 -5 -13 -14 -10 -30 -73 -98 -82 -89 -4 5 -2 11 5 13 6 3 9 10 6
15 -4 7 -2 8 4 4 7 -4 12 -2 12 3 0 21 115 148 141 156 11 4 16 11 13 18 -4 7
-4 9 0 6 4 -4 24 8 44 26 20 19 40 32 44 29 4 -3 8 0 8 5 0 14 71 49 88 43 7
-2 11 -7 8 -9z m-373 -320 c10 -10 -34 -54 -46 -46 -6 4 -7 1 -2 -7 4 -7 2
-16 -6 -21 -8 -4 -14 -12 -14 -16 0 -16 -42 -62 -50 -55 -5 4 -6 0 -3 -8 7
-18 -26 -63 -37 -52 -5 4 -5 -1 -2 -10 4 -11 0 -19 -13 -23 -11 -3 -19 -9 -19
-13 3 -19 -3 -33 -26 -58 -13 -14 -22 -31 -18 -37 3 -5 1 -7 -5 -3 -6 4 -12
-3 -14 -16 -2 -13 -9 -22 -16 -20 -7 1 -12 -3 -11 -10 3 -18 -11 -48 -22 -48
-5 0 -9 4 -9 8 0 13 89 148 90 137 1 -8 20 28 24 45 4 15 100 150 107 150 5 0
9 6 9 14 0 7 11 24 24 38 12 14 26 33 29 42 7 17 19 21 30 9z m-403 -604 c0
-5 -4 -7 -10 -4 -5 3 -10 -3 -10 -14 0 -12 -3 -21 -8 -21 -4 0 -18 -20 -31
-45 -13 -24 -27 -43 -30 -40 -4 2 -13 -12 -20 -31 -7 -19 -17 -32 -22 -28 -6
3 -9 0 -7 -8 4 -18 -47 -79 -57 -70 -5 4 -5 -1 -2 -10 6 -18 -15 -42 -27 -30
-5 4 -6 0 -4 -9 3 -15 -30 -61 -112 -151 -25 -28 -49 -57 -53 -64 -8 -15 -27
-19 -27 -6 0 4 25 34 54 67 30 33 62 68 70 78 9 9 14 17 11 17 -3 0 15 25 39
55 25 30 50 64 56 75 6 11 18 20 26 20 8 0 13 4 10 8 -7 12 63 118 76 114 6
-2 8 4 4 13 -3 10 -2 14 5 10 6 -4 9 -1 8 6 -4 19 33 79 49 79 6 0 12 -5 12
-11z m-560 -659 c0 -6 -17 -19 -39 -28 -31 -14 -36 -20 -25 -30 7 -6 19 -12
26 -12 10 0 9 3 -1 9 -9 6 130 10 347 10 322 2 362 0 362 -14 0 -14 -35 -15
-307 -15 -271 1 -308 -1 -311 -14 -3 -12 -8 -13 -20 -7 -9 5 -47 12 -84 16
-38 4 -68 11 -68 16 0 5 -12 4 -26 -1 -14 -6 -93 -10 -175 -10 -128 0 -149 2
-149 15 0 14 22 16 158 15 86 -1 160 -1 165 0 13 0 21 4 77 31 62 31 70 33 70
19z m238 -207 c20 -21 32 -31 28 -23 -5 8 3 3 18 -12 15 -15 27 -31 28 -35 3
-13 23 -31 29 -27 6 4 142 -141 168 -180 8 -12 32 -42 54 -68 21 -27 36 -48
33 -48 -3 0 6 -12 19 -26 14 -15 22 -30 19 -35 -7 -12 -38 19 -61 63 -11 21
-23 35 -26 32 -3 -3 -8 4 -12 15 -3 11 -21 35 -39 53 -18 18 -31 40 -28 48 3
8 1 12 -3 8 -4 -4 -26 13 -49 39 -48 54 -140 146 -144 144 -5 -3 -92 73 -92
81 0 18 25 6 58 -29z m439 -505 c15 -24 26 -49 24 -57 -1 -7 2 -10 7 -7 11 7
115 -140 115 -161 0 -7 4 -13 9 -13 5 0 14 -12 21 -27 6 -16 18 -34 25 -42 7
-7 10 -16 7 -20 -11 -10 -54 51 -47 67 3 10 1 13 -6 8 -12 -7 -38 32 -33 53 1
7 -2 10 -8 6 -7 -4 -8 0 -4 11 4 12 3 15 -5 10 -11 -6 -18 3 -86 105 -16 24
-37 56 -47 70 -15 22 -16 39 -2 39 1 0 15 -19 30 -42z m600 -903 c9 -16 21
-33 27 -37 6 -4 8 -8 5 -8 -4 0 7 -15 25 -33 51 -55 216 -246 216 -252 0 -3
-3 -4 -7 -2 -5 1 -7 5 -6 9 2 4 -6 10 -17 13 -10 3 -22 15 -25 26 -4 10 -11
16 -17 13 -7 -4 -8 -2 -4 4 4 7 1 12 -8 12 -17 0 -39 34 -29 44 3 3 -1 6 -10
6 -9 0 -28 17 -43 38 -16 20 -35 43 -43 50 -10 8 -11 12 -3 12 7 0 -2 13 -21
29 -18 16 -42 46 -52 65 -11 20 -23 36 -27 36 -8 0 -38 54 -38 67 1 12 59 -58
77 -92z"/>
<path d="M14610 11550 c6 -11 13 -20 16 -20 2 0 0 9 -6 20 -6 11 -13 20 -16
20 -2 0 0 -9 6 -20z"/>
<path d="M15280 10566 c0 -2 8 -10 18 -17 15 -13 16 -12 3 4 -13 16 -21 21
-21 13z"/>
<path d="M15336 10507 c3 -10 9 -15 12 -12 3 3 0 11 -7 18 -10 9 -11 8 -5 -6z"/>
<path d="M16311 14084 c0 -11 3 -14 6 -6 3 7 2 16 -1 19 -3 4 -6 -2 -5 -13z"/>
<path d="M17042 14080 c0 -14 2 -19 5 -12 2 6 2 18 0 25 -3 6 -5 1 -5 -13z"/>
<path d="M8305 13964 c-40 -30 -60 -37 -142 -50 -162 -24 -248 -56 -339 -124
-41 -31 -60 -55 -84 -107 -18 -38 -36 -75 -41 -83 -5 -8 -26 -49 -47 -90 -35
-71 -37 -80 -37 -171 0 -90 2 -99 37 -170 20 -40 84 -144 141 -229 92 -137
104 -161 110 -210 3 -30 11 -73 18 -95 10 -34 13 -37 20 -20 4 11 8 32 8 47 2
56 82 74 167 38 38 -16 40 -14 101 75 52 77 86 146 113 225 l21 63 -55 49
c-65 58 -83 102 -61 154 15 36 59 64 100 64 37 0 77 -23 114 -66 18 -20 35
-34 38 -31 3 3 -2 29 -11 58 -8 29 -14 54 -13 55 4 4 177 84 181 84 3 0 7 -13
11 -30 4 -16 11 -30 16 -30 13 0 11 47 -2 56 -12 7 7 24 27 24 15 0 51 -85 60
-139 4 -27 10 -38 15 -30 9 15 4 51 -22 139 -29 98 -25 96 -110 54 -41 -20
-76 -40 -79 -43 -3 -3 -28 -18 -56 -32 l-52 -27 -16 57 c-22 78 -20 110 10
194 75 207 72 294 -13 352 -50 33 -73 32 -128 -11z"/>
<path d="M17060 13936 c0 -8 4 -18 10 -21 6 -4 7 1 3 12 -6 16 -5 16 10 4 15
-12 17 -12 11 3 -8 20 -34 21 -34 2z"/>
<path d="M17144 13640 c0 -11 4 -20 8 -20 4 0 8 9 8 20 0 11 -4 20 -8 20 -4 0
-8 -9 -8 -20z"/>
<path d="M8605 13547 c-36 -12 -65 -35 -65 -53 0 -27 22 -25 56 5 19 17 41 31
49 31 8 0 15 4 15 9 0 15 -24 19 -55 8z"/>
<path d="M17044 13350 c0 -13 4 -16 10 -10 7 7 7 13 0 20 -6 6 -10 3 -10 -10z"/>
<path d="M8696 13222 c6 -42 10 -80 7 -84 -8 -14 21 -8 66 12 l44 20 -29 32
c-104 111 -102 111 -88 20z"/>
<path d="M17053 13213 c20 -5 23 -29 5 -36 -8 -4 -9 -6 -2 -6 16 -1 37 26 29
39 -3 5 -16 9 -28 9 -17 -1 -18 -2 -4 -6z"/>
<path d="M15082 13185 c-58 -25 -101 -66 -128 -122 -67 -137 -6 -288 137 -338
70 -25 79 -22 79 30 0 40 -3 45 -22 45 -63 0 -128 78 -130 154 -2 124 127 196
237 131 40 -23 75 -73 75 -108 0 -11 13 -16 46 -19 l46 -3 -6 38 c-13 82 -75
160 -153 192 -44 19 -138 19 -181 0z"/>
<path d="M12299 13168 c-7 -17 -64 -715 -59 -721 4 -4 47 -7 96 -5 l89 3 31
355 c17 195 29 358 27 363 -4 6 -181 11 -184 5z"/>
<path d="M15503 13155 c-3 -9 -3 -18 -1 -21 3 -3 8 4 11 16 6 23 -1 27 -10 5z"/>
<path d="M16329 13162 c7 -5 10 -15 7 -21 -4 -6 -2 -11 4 -11 17 0 8 33 -10
37 -12 4 -13 3 -1 -5z"/>
<path d="M15495 13009 c-11 -16 -1 -19 13 -3 7 8 8 14 3 14 -5 0 -13 -5 -16
-11z"/>
<path d="M11516 12938 c-4 -24 -13 -126 -21 -228 -8 -102 -18 -204 -21 -227
l-5 -43 95 0 c93 0 96 1 96 23 0 12 9 119 20 237 11 118 20 230 20 248 l0 32
-89 0 -90 0 -5 -42z"/>
<path d="M11890 12863 c0 -10 -7 -90 -15 -178 -8 -88 -15 -179 -15 -202 l0
-43 90 0 c50 0 90 3 90 6 0 13 30 351 35 392 l5 42 -95 0 c-84 0 -95 -2 -95
-17z"/>
<path d="M15500 12850 c0 -5 5 -10 11 -10 5 0 7 5 4 10 -3 6 -8 10 -11 10 -2
0 -4 -4 -4 -10z"/>
<path d="M8630 12778 c-17 -18 -38 -49 -46 -67 -22 -51 -60 -98 -105 -128 -40
-26 -41 -26 -247 -27 -216 -2 -249 -6 -397 -58 -60 -20 -61 -21 -84 -80 -15
-38 -31 -62 -45 -68 -11 -4 -66 -22 -121 -40 -195 -62 -311 -148 -351 -257 -9
-27 -30 -77 -47 -113 -282 -616 -438 -1096 -425 -1307 6 -83 37 -141 116 -215
124 -116 380 -244 667 -334 50 -16 92 -29 94 -31 2 -1 18 -64 35 -139 l31
-137 -22 -110 c-31 -153 -52 -388 -63 -715 -11 -313 -36 -824 -46 -922 l-6
-65 -558 3 -559 2 -6 -52 c-3 -29 -5 -969 -3 -2088 l3 -2035 280 -3 c231 -3
281 -1 290 11 9 12 25 12 110 1 154 -21 2411 -20 2545 1 120 18 130 18 130 0
0 -14 22 -16 165 -14 l165 1 0 1989 c0 1585 3 1989 13 1989 6 0 839 0 1850 0
l1837 0 0 84 c0 46 -3 91 -6 100 -7 19 -50 21 -57 4 -4 -10 -6 -10 -6 0 -1 9
-433 12 -2125 12 l-2125 0 -5 53 c-13 113 -47 659 -42 664 3 3 54 6 113 6
l108 0 -110 7 c-60 4 -111 8 -112 9 -8 3 -2 51 7 56 16 10 12 38 -4 32 -11 -5
-13 0 -6 24 6 20 5 27 -2 23 -7 -5 -9 5 -4 30 4 23 3 43 -4 51 -10 12 -21 138
-55 644 -11 152 -21 241 -29 255 -10 15 -16 80 -20 216 -3 107 -9 249 -12 316
l-7 121 24 6 c13 4 35 24 48 44 13 21 59 88 102 149 l79 112 82 -49 c45 -27
85 -49 90 -49 8 0 54 39 141 120 27 25 53 45 58 45 5 0 42 -54 82 -120 50 -81
80 -121 94 -123 14 -2 43 23 104 89 46 51 90 98 98 106 11 11 25 -3 90 -89 61
-83 81 -103 101 -103 39 0 36 30 -8 88 -21 29 -64 87 -96 130 -31 42 -62 77
-70 77 -8 0 -56 -47 -108 -104 -51 -57 -96 -105 -99 -105 -3 -1 -39 53 -80
120 -40 67 -79 123 -86 126 -17 7 -42 -12 -138 -102 -44 -41 -83 -75 -87 -75
-4 0 -47 23 -95 52 l-87 51 -30 -35 c-17 -20 -58 -76 -90 -124 -33 -49 -68
-99 -77 -112 l-18 -23 -14 28 c-11 21 -16 89 -21 274 -3 135 -3 249 1 252 3 4
15 -5 26 -19 11 -14 26 -23 34 -20 8 4 11 1 8 -5 -4 -6 1 -19 11 -30 18 -21
40 -26 28 -7 -4 7 -3 8 5 4 6 -4 9 -11 6 -16 -6 -10 23 -22 36 -14 5 3 16 1
25 -4 15 -8 15 -10 0 -15 -10 -4 -15 -3 -11 3 3 6 2 10 -4 10 -5 0 -12 -4 -15
-9 -7 -11 22 -23 35 -15 5 3 8 0 7 -7 -2 -7 2 -14 7 -14 6 -1 24 -7 40 -14 47
-20 90 -24 116 -12 23 12 23 12 4 -4 -19 -16 -18 -17 25 -11 25 3 54 6 65 6
31 1 95 20 94 28 -3 18 2 26 9 15 6 -10 40 -2 138 32 173 60 165 56 124 68
-19 5 -29 12 -23 14 7 3 26 -2 43 -10 16 -9 30 -12 30 -7 0 4 10 6 22 2 14 -3
19 -1 14 6 -4 7 -2 10 6 7 7 -3 49 9 93 26 44 17 86 31 93 32 6 0 12 4 12 9 0
5 -8 7 -19 3 -10 -3 -29 -1 -42 5 -21 9 -19 9 11 4 26 -4 31 -3 20 5 -8 6 -10
11 -5 11 6 0 20 -7 31 -14 12 -9 31 -12 43 -9 18 4 20 8 9 15 -9 7 -4 8 15 3
21 -4 27 -3 21 6 -4 7 -3 9 4 5 6 -3 45 5 87 19 52 18 81 23 92 16 19 -10 83
16 83 34 0 41 -98 283 -119 294 -9 5 -31 6 -49 4 -24 -4 -34 -12 -38 -29 -7
-28 -9 -28 -162 -49 -81 -11 -204 -15 -443 -15 l-329 0 -11 28 c-6 15 -17 40
-25 56 -8 16 -14 35 -14 43 0 8 -4 12 -9 9 -5 -3 -8 2 -7 12 0 9 -4 16 -11 15
-7 -2 -10 3 -8 10 3 6 -10 42 -29 79 -31 63 -34 66 -51 50 -15 -15 -15 -14 1
13 11 16 13 26 7 22 -9 -6 -13 -1 -13 13 0 12 -10 36 -22 53 -24 34 -28 87
-13 205 l6 52 1455 0 1454 0 0 -22 c0 -38 -51 -612 -55 -625 -3 -10 -135 -13
-613 -13 l-609 0 -84 -39 c-46 -21 -102 -44 -124 -51 -22 -7 -44 -16 -50 -21
-5 -5 326 -8 790 -7 l800 3 17 195 c9 107 26 301 37 430 12 130 21 243 21 253
0 16 -89 17 -1574 17 l-1574 0 -7 -70 c-4 -38 -9 -70 -12 -70 -8 0 -58 64 -56
71 2 5 -8 16 -20 26 -13 10 -26 26 -30 36 -4 11 -12 15 -18 11 -7 -4 -9 -3 -6
3 4 6 -6 19 -21 29 -15 10 -33 24 -40 31 -18 18 -72 45 -72 37 0 -4 -8 0 -17
8 -46 39 -159 57 -355 58 -107 0 -128 2 -128 15 0 8 4 15 9 15 6 0 37 25 71
56 45 43 70 76 99 138 22 44 42 98 45 119 l5 37 -39 0 c-21 0 -45 3 -54 6 -10
4 -27 -6 -46 -28z m300 -442 c0 -2 -7 -7 -16 -10 -8 -3 -12 -2 -9 4 6 10 25
14 25 6z m57 -2 c-3 -3 -12 -4 -19 -1 -8 3 -5 6 6 6 11 1 17 -2 13 -5z m169
-76 c1 -8 -5 -15 -12 -15 -8 0 -12 3 -9 5 3 3 0 11 -6 18 -7 9 -6 12 7 10 10
-2 18 -9 20 -18z m114 -143 c0 -3 -9 0 -20 7 -11 7 -20 18 -20 25 0 8 8 5 20
-7 11 -11 20 -22 20 -25z m-487 -125 c-3 -12 -8 -19 -11 -16 -5 6 5 36 12 36
2 0 2 -9 -1 -20z m594 -34 c0 -19 -4 -33 -9 -30 -9 6 -6 64 4 64 3 0 6 -15 5
-34z m38 -85 c3 -5 1 -12 -5 -16 -5 -3 -10 1 -10 9 0 18 6 21 15 7z m72 -133
c-3 -8 -6 -5 -6 6 -1 11 2 17 5 13 3 -3 4 -12 1 -19z m-24 -18 c3 -11 1 -18
-4 -14 -5 3 -9 12 -9 20 0 20 7 17 13 -6z m-510 -5 c-3 -9 -8 -14 -10 -11 -3
3 -2 9 2 15 9 16 15 13 8 -4z m554 -27 c-3 -8 -6 -5 -6 6 -1 11 2 17 5 13 3
-3 4 -12 1 -19z m-572 -8 c3 -5 1 -10 -4 -10 -6 0 -11 5 -11 10 0 6 2 10 4 10
3 0 8 -4 11 -10z m603 -106 c-3 -14 -5 -12 -10 9 -3 19 -2 25 4 19 6 -6 8 -18
6 -28z m-498 -88 c0 -5 -7 -1 -15 10 -8 10 -14 24 -14 29 0 6 6 1 14 -9 8 -11
15 -24 15 -30z m585 -22 c9 -15 12 -24 7 -20 -6 3 -12 1 -15 -6 -2 -7 -3 -5
-2 5 2 9 0 17 -4 17 -4 0 -8 7 -8 15 0 20 2 19 22 -11z m-535 -47 c0 -12 0
-11 -24 28 l-17 30 20 -24 c12 -13 21 -28 21 -34z m1327 47 c-3 -3 -12 -4 -19
-1 -8 3 -5 6 6 6 11 1 17 -2 13 -5z m90 0 c-3 -3 -12 -4 -19 -1 -8 3 -5 6 6 6
11 1 17 -2 13 -5z m63 -26 c8 -20 9 -21 9 -4 1 11 4 17 7 14 3 -3 1 -21 -4
-39 l-9 -34 -7 37 c-3 20 -12 39 -19 41 -9 4 -9 6 1 6 7 1 17 -9 22 -21z
m-537 -25 c-7 -2 -19 -2 -25 0 -7 3 -2 5 12 5 14 0 19 -2 13 -5z m-108 -13
c-3 -5 -1 -10 6 -10 7 0 10 -2 8 -5 -3 -2 -16 -1 -29 2 -22 6 -23 7 -4 14 26
10 26 10 19 -1z m697 -55 c3 -13 1 -22 -3 -19 -9 5 -13 44 -5 44 2 0 6 -11 8
-25z m-1388 -101 c3 -8 2 -12 -4 -9 -6 3 -10 10 -10 16 0 14 7 11 14 -7z
m1373 10 c-3 -3 -12 -4 -19 -1 -8 3 -5 6 6 6 11 1 17 -2 13 -5z m-20 -20 c-3
-3 -12 -4 -19 -1 -8 3 -5 6 6 6 11 1 17 -2 13 -5z m-1306 -51 c13 -16 12 -17
-3 -4 -17 13 -22 21 -14 21 2 0 10 -8 17 -17z m-1826 -345 c35 -145 62 -265
60 -266 -3 -3 -271 152 -284 164 -2 2 32 86 75 188 43 101 81 183 83 181 2 -2
32 -122 66 -267z m2432 176 c-3 -3 -12 -4 -19 -1 -8 3 -5 6 6 6 11 1 17 -2 13
-5z m63 -9 c0 -2 -8 -3 -17 -3 -10 0 -27 -2 -38 -6 -13 -5 -12 -2 4 7 21 12
51 13 51 2z m-385 -15 c3 -5 2 -10 -4 -10 -5 0 -13 5 -16 10 -3 6 -2 10 4 10
5 0 13 -4 16 -10z m-1010 -3012 c2 -15 -1 -30 -6 -33 -5 -4 -9 1 -9 9 0 9 -4
16 -10 16 -6 0 -6 -9 0 -26 6 -14 6 -23 1 -20 -17 11 -22 58 -10 94 12 36 12
36 21 12 5 -14 11 -37 13 -52z m-1028 -50 c-3 -8 -6 -5 -6 6 -1 11 2 17 5 13
3 -3 4 -12 1 -19z m30 -30 c-3 -8 -6 -5 -6 6 -1 11 2 17 5 13 3 -3 4 -12 1
-19z m979 -28 c1 -30 -11 -41 -19 -17 -5 15 3 47 12 47 3 0 6 -14 7 -30z
m-1005 -41 c-5 -13 -10 -19 -10 -12 -1 15 10 45 15 40 3 -2 0 -15 -5 -28z
m946 -21 c-3 -8 -6 -5 -6 6 -1 11 2 17 5 13 3 -3 4 -12 1 -19z m5330 -10 c-3
-7 -5 -2 -5 12 0 14 2 19 5 13 2 -7 2 -19 0 -25z m-5230 0 c-3 -8 -6 -5 -6 6
-1 11 2 17 5 13 3 -3 4 -12 1 -19z m-120 -20 c-3 -8 -6 -5 -6 6 -1 11 2 17 5
13 3 -3 4 -12 1 -19z m1090 -10 c-3 -7 -5 -2 -5 12 0 14 2 19 5 13 2 -7 2 -19
0 -25z m-973 -4 c3 -8 2 -12 -4 -9 -6 3 -10 10 -10 16 0 14 7 11 14 -7z m51
-43 c5 -16 4 -21 -4 -17 -6 4 -11 15 -11 25 0 9 -4 22 -10 29 -6 8 -5 7 4 0 8
-7 17 -24 21 -37z m-1078 -28 c-3 -10 -5 -4 -5 12 0 17 2 24 5 18 2 -7 2 -21
0 -30z m914 3 c12 7 11 -1 -5 -41 -18 -43 -28 -46 -16 -4 5 16 8 36 6 42 -1 7
-1 9 1 4 3 -4 9 -5 14 -1z m1086 -8 c-3 -8 -6 -5 -6 6 -1 11 2 17 5 13 3 -3 4
-12 1 -19z m20 -40 c-3 -7 -5 -2 -5 12 0 14 2 19 5 13 2 -7 2 -19 0 -25z m0
-80 c-3 -7 -5 -2 -5 12 0 14 2 19 5 13 2 -7 2 -19 0 -25z m-889 -29 c-3 -8 -7
-3 -11 10 -4 17 -3 21 5 13 5 -5 8 -16 6 -23z m-1141 -11 c-3 -8 -6 -5 -6 6
-1 11 2 17 5 13 3 -3 4 -12 1 -19z m1150 -50 c-3 -8 -6 -5 -6 6 -1 11 2 17 5
13 3 -3 4 -12 1 -19z m-340 -60 c-3 -8 -6 -5 -6 6 -1 11 2 17 5 13 3 -3 4 -12
1 -19z m398 -119 c-5 -16 -4 -19 5 -14 9 6 11 4 5 -4 -10 -18 -27 2 -19 22 9
25 17 21 9 -4z m822 -11 c-3 -7 -5 -2 -5 12 0 14 2 19 5 13 2 -7 2 -19 0 -25z
m-830 -60 c-3 -7 -5 -2 -5 12 0 14 2 19 5 13 2 -7 2 -19 0 -25z m-465 -20 c-8
-8 -9 -4 -5 13 4 13 8 18 11 10 2 -7 -1 -18 -6 -23z m505 -25 c-3 -10 -5 -4
-5 12 0 17 2 24 5 18 2 -7 2 -21 0 -30z m-18 -16 c1 -5 -3 -5 -9 -2 -5 3 -10
16 -9 28 0 21 1 21 9 2 5 -11 9 -24 9 -28z m-459 17 c0 -8 -4 -12 -10 -9 -5 3
-10 10 -10 16 0 5 5 9 10 9 6 0 10 -7 10 -16z m-803 -36 c-3 -8 -6 -5 -6 6 -1
11 2 17 5 13 3 -3 4 -12 1 -19z m-15 -33 c2 -19 0 -35 -4 -35 -4 0 -8 16 -8
35 0 19 2 35 4 35 2 0 6 -16 8 -35z m735 -97 c-3 -8 -6 -5 -6 6 -1 11 2 17 5
13 3 -3 4 -12 1 -19z m610 -75 c-3 -10 -5 -4 -5 12 0 17 2 24 5 18 2 -7 2 -21
0 -30z m-1431 -9 c-4 -9 -9 -15 -11 -12 -3 3 -3 13 1 22 4 9 9 15 11 12 3 -3
3 -13 -1 -22z m819 -4 c-4 -12 -9 -19 -12 -17 -3 3 -2 15 2 27 4 12 9 19 12
17 3 -3 2 -15 -2 -27z m-798 -32 c-3 -8 -6 -5 -6 6 -1 11 2 17 5 13 3 -3 4
-12 1 -19z m810 -10 c-3 -7 -5 -2 -5 12 0 14 2 19 5 13 2 -7 2 -19 0 -25z
m610 -30 c-3 -8 -6 -5 -6 6 -1 11 2 17 5 13 3 -3 4 -12 1 -19z m20 0 c-3 -8
-6 -5 -6 6 -1 11 2 17 5 13 3 -3 4 -12 1 -19z m-40 -50 c-3 -8 -6 -5 -6 6 -1
11 2 17 5 13 3 -3 4 -12 1 -19z m-670 -60 c-3 -7 -5 -2 -5 12 0 14 2 19 5 13
2 -7 2 -19 0 -25z m710 0 c-3 -7 -5 -2 -5 12 0 14 2 19 5 13 2 -7 2 -19 0 -25z
m-1537 -57 c0 -6 -4 -13 -10 -16 -5 -3 -10 1 -10 9 0 9 5 16 10 16 6 0 10 -4
10 -9z m21 -18 c-8 -15 -10 -15 -11 -2 0 17 10 32 18 25 2 -3 -1 -13 -7 -23z
m806 5 c-3 -8 -6 -5 -6 6 -1 11 2 17 5 13 3 -3 4 -12 1 -19z m1483 -6 c0 -15
-2 -15 -10 -2 -13 20 -13 33 0 25 6 -3 10 -14 10 -23z m-2339 -44 c-8 -20 -9
-18 -8 15 1 24 4 32 9 23 4 -8 4 -25 -1 -38z m856 -60 c-3 -8 -6 -5 -6 6 -1
11 2 17 5 13 3 -3 4 -12 1 -19z m1500 -40 c-3 -7 -5 -2 -5 12 0 14 2 19 5 13
2 -7 2 -19 0 -25z m-20 -40 c-3 -8 -6 -5 -6 6 -1 11 2 17 5 13 3 -3 4 -12 1
-19z m26 -18 c-3 -12 -8 -19 -11 -16 -5 6 5 36 12 36 2 0 2 -9 -1 -20z m-2393
-80 c0 -5 -2 -10 -4 -10 -3 0 -8 5 -11 10 -3 6 -1 10 4 10 6 0 11 -4 11 -10z
m2400 -50 l6 25 6 -27 c3 -15 1 -25 -3 -22 -5 3 -9 -1 -9 -8 0 -9 -3 -9 -10 2
-5 8 -9 26 -8 40 1 22 2 21 6 -5 5 -30 5 -30 12 -5z m-2403 -22 c-3 -7 -5 -2
-5 12 0 14 2 19 5 13 2 -7 2 -19 0 -25z m-23 6 c3 -8 2 -13 -3 -9 -5 3 -11 0
-13 -7 -3 -7 -7 -5 -11 6 -4 10 -3 15 3 11 6 -3 10 -1 10 4 0 16 7 13 14 -5z
m796 -19 c0 -8 -3 -16 -7 -18 -5 -3 -8 5 -8 18 0 13 3 21 8 18 4 -2 7 -10 7
-18z m-823 -37 c-3 -8 -6 -5 -6 6 -1 11 2 17 5 13 3 -3 4 -12 1 -19z m2440
-20 c-3 -7 -5 -2 -5 12 0 14 2 19 5 13 2 -7 2 -19 0 -25z m0 -80 c-3 -8 -6 -5
-6 6 -1 11 2 17 5 13 3 -3 4 -12 1 -19z m-1647 -4 c0 -8 -19 -13 -24 -6 -3 5
1 9 9 9 8 0 15 -2 15 -3z m1657 -46 c-3 -8 -6 -5 -6 6 -1 11 2 17 5 13 3 -3 4
-12 1 -19z m-724 -123 c-3 -9 -8 -14 -10 -11 -3 3 -2 9 2 15 9 16 15 13 8 -4z
m734 -17 c-3 -8 -6 -5 -6 6 -1 11 2 17 5 13 3 -3 4 -12 1 -19z m-750 -45 c-3
-10 -5 -4 -5 12 0 17 2 24 5 18 2 -7 2 -21 0 -30z m-1760 -65 c-3 -8 -6 -5 -6
6 -1 11 2 17 5 13 3 -3 4 -12 1 -19z m750 -40 c-3 -8 -6 -5 -6 6 -1 11 2 17 5
13 3 -3 4 -12 1 -19z m-763 -58 c4 -25 3 -31 -4 -20 -5 8 -10 26 -10 39 0 32
6 24 14 -19z m731 -17 c-3 -21 -11 -42 -17 -48 -8 -7 -9 -4 -4 10 4 11 10 32
13 48 3 15 8 27 10 27 3 0 2 -17 -2 -37z m21 -50 c-10 -10 -19 5 -10 18 6 11
8 11 12 0 2 -7 1 -15 -2 -18z m1101 -45 c-3 -8 -6 -5 -6 6 -1 11 2 17 5 13 3
-3 4 -12 1 -19z m-1160 -30 c-3 -8 -6 -5 -6 6 -1 11 2 17 5 13 3 -3 4 -12 1
-19z m-700 -20 c-3 -8 -6 -5 -6 6 -1 11 2 17 5 13 3 -3 4 -12 1 -19z m1853
-78 c0 -5 -4 -10 -10 -10 -5 0 -10 5 -10 10 0 6 5 10 10 10 6 0 10 -4 10 -10z
m30 -26 c0 -8 -4 -12 -10 -9 -5 3 -10 10 -10 16 0 5 5 9 10 9 6 0 10 -7 10
-16z m687 -91 c-3 -10 -5 -2 -5 17 0 19 2 27 5 18 2 -10 2 -26 0 -35z m-1914
17 c-3 -12 -8 -19 -11 -16 -5 6 5 36 12 36 2 0 2 -9 -1 -20z m1934 -97 c-3
-10 -5 -2 -5 17 0 19 2 27 5 18 2 -10 2 -26 0 -35z m6 -48 c4 3 5 2 2 -2 -12
-16 -31 -9 -32 11 -2 19 -1 20 11 4 7 -10 16 -16 19 -13z m-1976 -32 c-3 -10
-5 -4 -5 12 0 17 2 24 5 18 2 -7 2 -21 0 -30z m1320 -15 c-3 -8 -6 -5 -6 6 -1
11 2 17 5 13 3 -3 4 -12 1 -19z m-1990 -95 c-3 -10 -5 -4 -5 12 0 17 2 24 5
18 2 -7 2 -21 0 -30z m2010 15 c-3 -8 -6 -5 -6 6 -1 11 2 17 5 13 3 -3 4 -12
1 -19z m-17 8 c0 -3 -4 -8 -10 -11 -5 -3 -10 -1 -10 4 0 6 5 11 10 11 6 0 10
-2 10 -4z m-1327 -26 c3 -11 1 -20 -4 -20 -5 0 -9 9 -9 20 0 11 2 20 4 20 2 0
6 -9 9 -20z m1994 -12 c-3 -7 -5 -2 -5 12 0 14 2 19 5 13 2 -7 2 -19 0 -25z
m-2650 -80 c-3 -8 -6 -5 -6 6 -1 11 2 17 5 13 3 -3 4 -12 1 -19z m2630 0 c-3
-8 -6 -5 -6 6 -1 11 2 17 5 13 3 -3 4 -12 1 -19z m-2670 -110 c-3 -8 -6 -5 -6
6 -1 11 2 17 5 13 3 -3 4 -12 1 -19z m2096 -33 c-3 -9 -8 -14 -10 -11 -3 3 -2
9 2 15 9 16 15 13 8 -4z m-1496 -27 c-3 -8 -6 -5 -6 6 -1 11 2 17 5 13 3 -3 4
-12 1 -19z m1508 -76 c-3 -3 -5 1 -5 9 0 12 -2 11 -11 -1 -9 -12 -10 -12 -5 3
3 10 6 24 7 30 0 7 5 1 10 -12 5 -13 7 -26 4 -29z m-1578 -124 c-3 -8 -6 -5
-6 6 -1 11 2 17 5 13 3 -3 4 -12 1 -19z m0 -90 c-3 -8 -6 -5 -6 6 -1 11 2 17
5 13 3 -3 4 -12 1 -19z m-40 -50 c-3 -7 -5 -2 -5 12 0 14 2 19 5 13 2 -7 2
-19 0 -25z m1660 -20 c-3 -8 -6 -5 -6 6 -1 11 2 17 5 13 3 -3 4 -12 1 -19z
m60 -30 c-3 -8 -6 -5 -6 6 -1 11 2 17 5 13 3 -3 4 -12 1 -19z m-2270 -110 c-3
-8 -6 -5 -6 6 -1 11 2 17 5 13 3 -3 4 -12 1 -19z m2810 -15 c-3 -10 -5 -4 -5
12 0 17 2 24 5 18 2 -7 2 -21 0 -30z m-2290 -25 c-3 -8 -6 -5 -6 6 -1 11 2 17
5 13 3 -3 4 -12 1 -19z m-500 -10 c-3 -8 -6 -5 -6 6 -1 11 2 17 5 13 3 -3 4
-12 1 -19z m474 -45 c-12 -20 -14 -14 -5 12 4 9 9 14 11 11 3 -2 0 -13 -6 -23z
m2326 -20 c-3 -10 -5 -2 -5 17 0 19 2 27 5 18 2 -10 2 -26 0 -35z m-20 15 c-3
-8 -6 -5 -6 6 -1 11 2 17 5 13 3 -3 4 -12 1 -19z m-2795 -40 c-6 -6 -7 0 -4
19 5 21 7 23 10 9 2 -10 0 -22 -6 -28z m2805 -20 c-3 -8 -6 -5 -6 6 -1 11 2
17 5 13 3 -3 4 -12 1 -19z m-470 -20 c-3 -8 -6 -5 -6 6 -1 11 2 17 5 13 3 -3
4 -12 1 -19z m-17 -33 c0 -5 -5 -3 -10 5 -5 8 -10 20 -10 25 0 6 5 3 10 -5 5
-8 10 -19 10 -25z m-2301 -20 c0 -5 -4 -3 -9 5 -5 8 -9 22 -9 30 0 16 17 -16
18 -35z m2798 -2 c-3 -10 -5 -4 -5 12 0 17 2 24 5 18 2 -7 2 -21 0 -30z m11
-76 c12 -3 10 -5 -5 -6 -19 -1 -23 4 -22 27 1 22 2 23 6 5 2 -12 12 -24 21
-26z m-2833 -17 c3 -5 1 -10 -4 -10 -6 0 -11 5 -11 10 0 6 2 10 4 10 3 0 8 -4
11 -10z m2389 -46 c3 -8 2 -12 -4 -9 -6 3 -10 10 -10 16 0 14 7 11 14 -7z
m-1967 -46 c-3 -7 -5 -2 -5 12 0 14 2 19 5 13 2 -7 2 -19 0 -25z m-10 -90 c-3
-8 -6 -5 -6 6 -1 11 2 17 5 13 3 -3 4 -12 1 -19z m-407 -47 c0 -6 -4 -13 -10
-16 -5 -3 -10 1 -10 9 0 9 5 16 10 16 6 0 10 -4 10 -9z m388 -18 c-10 -2 -26
-2 -35 0 -10 3 -2 5 17 5 19 0 27 -2 18 -5z m1999 1 c-3 -3 -12 -4 -19 -1 -8
3 -5 6 6 6 11 1 17 -2 13 -5z m61 -1 c-10 -2 -26 -2 -35 0 -10 3 -2 5 17 5 19
0 27 -2 18 -5z"/>
<path d="M9110 12770 c0 -93 53 -220 123 -291 112 -116 314 -140 485 -57 55
26 151 115 192 176 28 42 70 155 70 188 0 11 -18 14 -79 14 l-78 0 -7 -32
c-17 -84 -80 -164 -168 -210 -67 -35 -176 -33 -246 6 -79 44 -130 123 -132
204 l0 32 -80 0 -80 0 0 -30z"/>
<path d="M11203 12783 l-82 -4 -5 -42 c-8 -57 -26 -256 -26 -279 0 -16 10 -18
95 -18 l95 0 1 33 c0 17 6 93 13 167 12 132 12 152 -2 148 -4 -1 -44 -4 -89
-5z"/>
<path d="M16260 12699 c0 -5 5 -7 10 -4 6 3 10 8 10 11 0 2 -4 4 -10 4 -5 0
-10 -5 -10 -11z"/>
<path d="M8319 12599 c24 -21 45 -38 46 -37 1 2 0 20 -3 41 -4 36 -5 37 -46
37 l-41 -1 44 -40z"/>
<path d="M15500 12560 c0 -11 4 -20 8 -20 4 0 8 9 8 20 0 11 -4 20 -8 20 -4 0
-8 -9 -8 -20z"/>
<path d="M16124 12560 c0 -13 4 -16 10 -10 7 7 7 13 0 20 -6 6 -10 3 -10 -10z"/>
<path d="M16090 12559 c0 -5 5 -7 10 -4 6 3 10 8 10 11 0 2 -4 4 -10 4 -5 0
-10 -5 -10 -11z"/>
<path d="M15123 12509 c-53 -10 -91 -30 -125 -66 -33 -35 -67 -109 -68 -145 0
-26 3 -28 39 -28 37 0 40 3 51 38 17 52 57 90 109 106 79 23 146 -5 182 -76
25 -50 22 -116 -8 -157 -27 -36 -81 -71 -109 -71 -22 0 -24 -4 -24 -45 0 -52
8 -55 81 -30 92 31 154 109 166 203 6 52 -10 123 -32 146 -8 8 -15 19 -15 24
0 14 -68 72 -99 83 -47 18 -105 25 -148 18z"/>
<path d="M16328 12423 c6 -2 12 -9 12 -14 0 -6 -5 -7 -12 -3 -7 4 -8 3 -4 -5
9 -14 26 -5 26 15 0 8 -8 14 -17 13 -11 0 -13 -3 -5 -6z"/>
<path d="M3525 12225 l0 -185 188 0 187 0 0 185 0 185 -187 0 -188 0 0 -185z"/>
<path d="M15500 12266 c0 -8 4 -17 9 -20 5 -4 7 3 4 14 -6 23 -13 26 -13 6z"/>
<path d="M16263 11980 c1 -11 5 -20 9 -20 11 0 10 28 -1 35 -6 3 -9 -4 -8 -15z"/>
<path d="M11462 11944 c-129 -64 -139 -241 -16 -299 51 -24 128 -17 177 16
l37 26 -23 21 c-21 20 -24 20 -39 6 -45 -45 -149 -16 -163 45 -22 100 70 178
159 136 34 -16 38 -16 62 -1 l25 17 -25 20 c-57 45 -122 49 -194 13z"/>
<path d="M9759 11933 c0 -16 -6 -88 -12 -160 l-12 -133 127 0 128 0 0 25 c0
25 -1 25 -90 25 -87 0 -90 1 -90 23 0 59 5 62 85 59 l75 -4 0 31 0 31 -76 0
c-74 0 -76 1 -70 23 3 12 6 30 6 40 0 15 11 17 85 17 47 0 85 4 85 9 0 5 3 16
6 25 5 14 -9 16 -120 16 l-126 0 -1 -27z"/>
<path d="M10053 11953 c3 -5 23 -38 46 -76 22 -37 41 -71 41 -76 0 -5 -27 -42
-60 -81 -33 -39 -60 -74 -60 -76 0 -2 17 -4 38 -4 36 0 42 5 78 55 21 30 41
54 44 55 3 0 20 -25 38 -55 31 -52 35 -55 73 -55 46 0 46 -4 -21 103 l-39 60
57 74 c31 40 60 73 64 73 4 0 8 -11 8 -25 0 -23 3 -25 51 -25 l51 0 -6 -65
c-3 -36 -9 -94 -12 -130 l-6 -65 35 0 c39 0 38 -3 53 178 l7 82 53 0 c53 0 54
0 54 30 l0 30 -179 0 -179 0 -44 -51 -44 -51 -33 51 c-31 47 -36 51 -73 51
-21 0 -37 -3 -35 -7z"/>
<path d="M10686 11913 c-3 -26 -8 -82 -11 -123 -3 -41 -8 -92 -11 -112 -6 -38
-5 -38 29 -38 38 0 47 12 47 61 0 28 2 29 44 29 25 0 48 4 51 10 3 5 25 14 48
21 53 13 76 42 77 95 0 32 -6 46 -31 70 -29 28 -35 29 -134 32 l-103 4 -6 -49z
m188 -29 c40 -40 4 -90 -71 -100 l-53 -7 0 62 0 61 54 0 c36 0 60 -5 70 -16z"/>
<path d="M11133 11948 c-16 -20 -63 -116 -63 -129 0 -8 4 -8 13 -2 6 6 23 13
37 16 16 4 30 17 37 34 11 27 11 27 18 6 7 -20 24 -24 55 -13 3 2 8 2 12 1 4
0 0 20 -10 47 -16 43 -21 47 -53 50 -21 2 -40 -2 -46 -10z"/>
<path d="M11700 11946 c0 -8 -3 -21 -6 -30 -5 -13 3 -16 51 -16 l57 0 -5 -32
c-3 -18 -9 -77 -13 -130 l-6 -98 35 0 34 0 7 83 c4 45 10 103 13 130 l6 47 53
0 c53 0 54 0 54 30 l0 30 -140 0 c-114 0 -140 -3 -140 -14z"/>
<path d="M3530 11800 l0 -130 185 0 185 0 0 130 0 130 -185 0 -185 0 0 -130z"/>
<path d="M16104 11839 c-5 -8 -3 -9 6 -4 7 4 16 2 22 -6 8 -12 9 -12 6 0 -6
20 -24 25 -34 10z"/>
<path d="M15131 11819 c-194 -38 -272 -275 -134 -413 32 -33 117 -76 151 -76
19 0 22 5 22 44 0 41 -2 44 -31 50 -38 7 -85 40 -101 69 -18 35 -27 97 -17
131 12 42 69 96 111 105 43 9 104 -4 137 -30 29 -23 60 -75 61 -101 0 -15 9
-18 45 -18 51 0 54 7 31 73 -23 62 -64 113 -114 139 -57 31 -103 39 -161 27z"/>
<path d="M11225 11777 c-11 -7 -36 -17 -55 -22 -19 -6 -36 -18 -38 -27 -3 -14
7 -17 49 -20 50 -3 53 -5 61 -35 8 -29 13 -33 43 -33 19 0 35 5 35 11 0 5 -10
39 -22 75 -24 66 -35 74 -73 51z"/>
<path d="M16340 11686 c0 -9 5 -16 10 -16 6 0 10 4 10 9 0 6 -4 13 -10 16 -5
3 -10 -1 -10 -9z"/>
<path d="M15500 11675 c0 -8 4 -15 10 -15 5 0 7 7 4 15 -4 8 -8 15 -10 15 -2
0 -4 -7 -4 -15z"/>
<path d="M15500 11389 c0 -5 5 -7 10 -4 6 3 10 8 10 11 0 2 -4 4 -10 4 -5 0
-10 -5 -10 -11z"/>
<path d="M10949 11178 c0 -18 -4 -68 -7 -110 l-8 -78 112 0 112 0 7 93 c3 50
9 100 11 110 5 15 -5 17 -110 17 l-116 0 -1 -32z m174 -65 c-2 -32 -6 -64 -9
-70 -4 -14 -120 -19 -126 -5 -2 4 -2 35 0 70 l4 62 68 0 69 0 -6 -57z"/>
<path d="M10916 10783 c-4 -49 -9 -100 -12 -115 l-6 -28 115 0 115 0 6 98 c4
53 10 105 12 115 5 15 -5 17 -109 17 l-115 0 -6 -87z m180 15 c-3 -13 -6 -42
-6 -65 l0 -43 -71 0 c-69 0 -71 1 -65 23 3 12 6 41 6 65 l0 42 71 0 c69 0 71
-1 65 -22z"/>
<path d="M10885 10428 c-3 -51 -9 -101 -11 -110 -5 -16 5 -18 110 -18 l116 0
1 33 c0 17 4 67 7 110 l8 77 -112 0 -112 0 -7 -92z m181 26 c-3 -9 -6 -38 -6
-65 l0 -49 -71 0 c-69 0 -71 1 -65 23 3 12 6 41 6 65 l0 42 71 0 c61 0 70 -2
65 -16z"/>
<path d="M16300 9756 c0 -8 4 -17 9 -20 5 -4 7 3 4 14 -6 23 -13 26 -13 6z"/>
<path d="M17223 9750 c-1 -11 2 -18 8 -15 11 7 12 35 1 35 -4 0 -8 -9 -9 -20z"/>
<path d="M16300 9596 c0 -8 4 -17 9 -20 5 -4 7 3 4 14 -6 23 -13 26 -13 6z"/>
<path d="M9560 9442 c0 -20 9 -140 20 -266 11 -126 18 -239 15 -250 -3 -12 -2
-15 1 -8 5 10 119 12 544 12 611 -1 600 1 600 -70 0 -21 6 -43 15 -50 20 -16
19 -27 -2 -33 -17 -4 -17 -5 0 -6 9 0 17 -8 17 -16 0 -15 -38 -41 -53 -37 -5
1 -6 -2 -2 -8 5 -8 12 -7 23 2 13 11 14 11 11 -1 -5 -15 -16 -22 -54 -38 -29
-12 787 -15 819 -3 45 17 68 66 64 138 -3 52 -8 67 -31 90 l-27 27 -390 3
-389 3 -9 32 c-5 18 -38 141 -73 274 l-64 243 -517 0 -518 0 0 -38z m1209
-612 c1 -13 0 -13 -9 0 -5 8 -9 24 -9 35 l0 20 9 -20 c5 -11 9 -27 9 -35z"/>
<path d="M16300 9430 c0 -11 4 -20 8 -20 4 0 8 9 8 20 0 11 -4 20 -8 20 -4 0
-8 -9 -8 -20z"/>
<path d="M17143 9270 c-1 -11 2 -20 8 -20 5 0 9 9 9 20 0 11 -4 20 -8 20 -4 0
-8 -9 -9 -20z"/>
<path d="M9478 8913 c7 -3 16 -2 19 1 4 3 -2 6 -13 5 -11 0 -14 -3 -6 -6z"/>
<path d="M9518 8913 c7 -3 16 -2 19 1 4 3 -2 6 -13 5 -11 0 -14 -3 -6 -6z"/>
<path d="M10660 8910 c0 -5 5 -10 11 -10 5 0 7 5 4 10 -3 6 -8 10 -11 10 -2 0
-4 -4 -4 -10z"/>
<path d="M9540 8890 c0 -5 5 -10 10 -10 6 0 10 5 10 10 0 6 -4 10 -10 10 -5 0
-10 -4 -10 -10z"/>
<path d="M9575 8890 c3 -5 8 -10 11 -10 2 0 4 5 4 10 0 6 -5 10 -11 10 -5 0
-7 -4 -4 -10z"/>
<path d="M9858 8893 c144 -2 380 -2 525 0 144 1 26 2 -263 2 -289 0 -407 -1
-262 -2z"/>
<path d="M10690 8896 c0 -2 9 -6 20 -9 11 -3 20 -1 20 4 0 5 -9 9 -20 9 -11 0
-20 -2 -20 -4z"/>
<path d="M9481 8839 c1 -19 5 -45 9 -59 6 -16 7 -6 3 30 -7 63 -13 80 -12 29z"/>
<path d="M9500 8820 c0 -5 5 -10 10 -10 6 0 10 5 10 10 0 6 -4 10 -10 10 -5 0
-10 -4 -10 -10z"/>
<path d="M10720 8816 c0 -8 4 -17 9 -20 5 -4 7 3 4 14 -6 23 -13 26 -13 6z"/>
<path d="M9708 8693 c6 -2 18 -2 25 0 6 3 1 5 -13 5 -14 0 -19 -2 -12 -5z"/>
<path d="M9858 8693 c56 -2 148 -2 205 0 56 1 10 3 -103 3 -113 0 -159 -2
-102 -3z"/>
<path d="M10188 8693 c6 -2 18 -2 25 0 6 3 1 5 -13 5 -14 0 -19 -2 -12 -5z"/>
<path d="M10343 8693 c59 -2 154 -2 210 0 56 1 8 3 -108 3 -115 0 -161 -2
-102 -3z"/>
<path d="M10688 8693 c7 -3 16 -2 19 1 4 3 -2 6 -13 5 -11 0 -14 -3 -6 -6z"/>
<path d="M9470 8676 c0 -2 7 -6 15 -10 8 -3 15 -1 15 4 0 6 -7 10 -15 10 -8 0
-15 -2 -15 -4z"/>
<path d="M11841 7167 c45 -35 52 -108 14 -150 l-26 -27 45 0 c97 0 143 95 77
161 -25 24 -37 29 -78 29 -40 -1 -45 -3 -32 -13z"/>
<path d="M11838 6083 c18 -7 42 -57 42 -88 0 -30 -16 -65 -39 -82 -13 -10 -8
-12 32 -13 41 0 53 5 78 29 39 39 40 94 4 134 -22 23 -33 27 -78 26 -29 0 -46
-3 -39 -6z"/>
<path d="M11840 4990 c0 -5 4 -10 8 -10 14 0 32 -48 32 -85 0 -25 -8 -40 -31
-59 l-31 -26 52 0 c44 0 56 4 81 29 42 43 37 112 -10 148 -19 15 -101 17 -101
3z"/>
<path d="M6995 3732 c-16 -2 -34 -7 -38 -11 -14 -14 -86 -271 -80 -287 9 -25
48 -34 146 -34 129 -1 319 -16 402 -34 39 -8 102 -17 140 -21 63 -6 73 -5 105
17 40 27 60 70 44 95 -6 9 -41 25 -78 35 -101 28 -141 52 -225 138 -73 75 -78
78 -131 85 -93 10 -253 20 -285 17z"/>
<path d="M9616 3709 c-71 -16 -133 -32 -137 -36 -3 -5 -10 -72 -13 -150 -7
-136 -6 -143 14 -163 12 -12 28 -19 38 -16 82 26 394 89 479 96 129 12 206 25
233 40 33 18 52 55 48 97 l-3 38 -105 6 c-116 6 -151 18 -246 79 -54 36 -67
40 -120 39 -32 -1 -117 -14 -188 -30z"/>
</g>
</svg>
