<?xml version="1.0" standalone="no"?>
<!DOCTYPE svg PUBLIC "-//W3C//DTD SVG 20010904//EN"
 "http://www.w3.org/TR/2001/REC-SVG-20010904/DTD/svg10.dtd">
<svg version="1.0" xmlns="http://www.w3.org/2000/svg"
 width="626.000000pt" height="626.000000pt" viewBox="0 0 626.000000 626.000000"
 preserveAspectRatio="xMidYMid meet">

<g transform="translate(0.000000,626.000000) scale(0.100000,-0.100000)"
fill="#000000" stroke="none">
<path d="M2531 5450 c-228 -132 -418 -245 -423 -252 -4 -7 -8 -167 -8 -355 0
-189 -2 -343 -3 -343 -2 0 -136 77 -298 170 -161 94 -300 170 -309 170 -8 0
-204 -109 -435 -243 l-420 -242 -2 -1140 c-2 -627 1 -1145 5 -1151 6 -10 734
-434 820 -478 30 -15 34 -15 65 0 85 44 813 468 819 478 4 6 8 165 8 354 0
217 4 342 10 342 5 0 138 -74 295 -165 158 -91 297 -165 310 -165 26 0 832
461 853 488 9 12 12 256 12 1138 l0 1123 -22 24 c-29 32 -819 487 -844 487
-10 -1 -205 -108 -433 -240z m580 128 c68 -39 143 -82 167 -96 24 -13 41 -29
40 -34 -7 -19 -9 -17 -262 131 -72 43 -103 71 -78 71 5 0 65 -32 133 -72z
m-60 -24 c90 -51 117 -74 88 -74 -12 0 -129 63 -171 92 -25 18 -37 38 -22 38
3 0 51 -25 105 -56z m-80 -11 c49 -28 57 -37 40 -48 -13 -7 -100 47 -101 63 0
17 6 16 61 -15z m58 -94 c128 -73 162 -99 130 -99 -23 0 -279 153 -279 166 0
8 2 14 4 14 2 0 67 -36 145 -81z m-188 -34 c0 -5 -12 -11 -26 -13 -18 -2 -25
1 -25 13 0 12 7 15 25 13 14 -2 26 -7 26 -13z m-122 -54 c17 -11 6 -31 -18
-31 -25 0 -33 11 -20 27 13 15 19 16 38 4z m139 -23 c-3 -7 -13 -13 -23 -13
-10 0 -20 6 -22 13 -3 7 5 12 22 12 17 0 25 -5 23 -12z m137 -8 c8 -13 -20
-24 -41 -16 -20 8 -9 26 16 26 10 0 22 -5 25 -10z m-325 -16 c0 -10 -7 -14
-22 -12 -32 5 -35 28 -4 28 17 0 26 -5 26 -16z m77 -40 c2 -6 -4 -14 -13 -18
-19 -7 -47 11 -38 26 8 12 46 6 51 -8z m128 -14 c0 -18 -16 -22 -35 -10 -13 9
-13 11 0 20 19 12 35 8 35 -10z m215 -55 c0 -9 -9 -15 -25 -15 -16 0 -25 6
-25 15 0 9 9 15 25 15 16 0 25 -6 25 -15z m-120 -55 c13 -9 13 -11 0 -20 -8
-5 -17 -10 -20 -10 -3 0 -12 5 -20 10 -13 9 -13 11 0 20 8 5 17 10 20 10 3 0
12 -5 20 -10z m-546 -366 c347 -198 386 -223 386 -250 0 -13 -4 -24 -9 -24
-13 0 -511 287 -533 307 -20 18 -24 53 -7 53 7 0 80 -39 163 -86z m-830 -32
c45 -27 119 -70 166 -97 103 -59 96 -53 84 -65 -7 -7 -30 2 -70 26 -32 19 -81
48 -109 63 -122 68 -175 103 -170 112 9 14 12 13 99 -39z m-19 -48 c88 -53
112 -74 83 -74 -26 0 -200 109 -192 121 8 13 6 14 109 -47z m844 -35 c131 -75
141 -83 141 -110 0 -16 -2 -29 -4 -29 -7 0 -246 139 -277 161 -30 21 -40 59
-15 59 8 0 77 -36 155 -81z m-879 -9 c0 -19 -17 -17 -59 7 -25 15 -48 28 -50
29 -1 2 0 8 4 14 7 11 105 -36 105 -50z m16 -64 c116 -66 155 -96 125 -96 -16
0 -281 153 -281 162 0 19 36 3 156 -66z m1714 -652 c0 -453 -4 -692 -10 -705
-6 -10 -17 -19 -25 -19 -13 0 -15 91 -15 689 0 379 3 696 6 705 3 9 15 16 25
16 18 0 19 -20 19 -686z m-1902 619 c2 -8 -6 -13 -22 -13 -28 0 -43 15 -24 23
20 8 41 3 46 -10z m-118 -69 c0 -10 -7 -14 -22 -12 -32 5 -35 28 -4 28 17 0
26 -5 26 -16z m135 -4 c8 -13 -20 -24 -41 -16 -20 8 -9 26 16 26 10 0 22 -5
25 -10z m135 -15 c0 -9 -9 -15 -25 -15 -16 0 -25 6 -25 15 0 9 9 15 25 15 16
0 25 -6 25 -15z m-325 -5 c8 -13 -20 -24 -41 -16 -20 8 -9 26 16 26 10 0 22
-5 25 -10z m1218 -91 c246 -141 382 -222 389 -233 11 -16 10 -46 -2 -46 -21 0
-520 291 -540 315 -11 14 -8 45 5 45 3 0 70 -37 148 -81z m-1148 41 c0 -18
-16 -22 -35 -10 -13 9 -13 11 0 20 19 12 35 8 35 -10z m134 1 c17 -11 5 -31
-19 -31 -24 0 -36 20 -19 31 8 5 16 9 19 9 3 0 11 -4 19 -9z m2021 -555 c0
-288 -3 -531 -6 -540 -3 -9 -15 -16 -25 -16 -18 0 -19 17 -19 526 0 490 1 528
18 540 9 7 20 14 25 14 4 0 7 -236 7 -524z m-1805 494 c8 -13 -20 -24 -41 -16
-20 8 -9 26 16 26 10 0 22 -5 25 -10z m-117 -68 c5 -17 -27 -27 -41 -13 -9 9
-8 14 3 21 18 11 32 8 38 -8z m979 -68 c54 -31 112 -64 128 -74 103 -60 105
-61 105 -92 l0 -30 -32 19 c-18 10 -99 57 -180 103 -136 78 -148 87 -148 114
0 34 -1 35 127 -40z m1253 -352 c0 -347 -1 -360 -20 -377 -11 -10 -22 -16 -25
-14 -2 3 -5 167 -5 364 -1 331 0 361 16 372 10 7 21 13 26 13 4 0 8 -161 8
-358z m-2765 51 c366 -209 394 -228 366 -256 -7 -7 -46 11 -128 58 -65 37
-140 80 -168 95 -27 16 -77 44 -110 64 -33 19 -79 47 -102 60 -33 20 -43 31
-43 52 0 33 -3 34 185 -73z m1800 -162 c38 -26 60 -71 34 -71 -6 0 -75 37
-153 81 -77 45 -176 102 -218 126 -61 35 -78 49 -78 67 0 12 2 25 5 28 6 5
331 -178 410 -231z m-1825 60 c126 -73 135 -81 138 -111 l3 -33 -68 38 c-113
63 -218 128 -225 139 -12 18 -9 46 5 45 6 0 73 -35 147 -78z m1479 24 c30 -18
41 -32 41 -50 0 -32 -8 -31 -64 3 -37 22 -45 33 -46 56 0 32 6 31 69 -9z m699
-360 c-3 -285 -5 -337 -18 -345 -8 -5 -18 -10 -22 -10 -5 0 -8 151 -8 335 0
308 1 335 18 344 9 6 21 11 25 11 4 0 6 -151 5 -335z m-1330 -407 c-3 -695 -3
-703 -23 -703 -20 0 -20 8 -23 677 -1 425 2 686 8 702 5 14 16 26 25 26 13 0
15 -77 13 -702z m1784 463 c-2 -101 -6 -132 -18 -142 -26 -21 -34 7 -34 127 0
104 1 113 23 127 12 9 24 16 27 16 3 1 4 -57 2 -128z m-2560 -57 c111 -64 223
-128 248 -141 49 -27 80 -58 80 -79 0 -8 -6 -14 -14 -14 -8 0 -99 49 -202 108
-340 196 -339 195 -342 226 -3 22 0 27 11 23 9 -3 107 -58 219 -123z m1568
-24 c195 -110 230 -134 230 -161 0 -32 -8 -30 -155 56 -311 181 -305 177 -305
200 0 32 10 36 39 16 14 -10 100 -60 191 -111z m-630 -443 c0 -465 -2 -525
-16 -546 -10 -14 -20 -19 -26 -13 -5 5 -9 220 -9 533 1 481 2 525 18 537 9 6
20 12 25 12 4 0 8 -235 8 -523z m-939 351 c118 -67 215 -122 217 -123 7 -5 10
-43 4 -52 -7 -10 -388 201 -432 239 -20 18 -28 58 -11 58 5 0 105 -55 222
-122z m1449 44 c81 -49 95 -61 98 -86 4 -36 0 -34 -120 37 -77 45 -88 55 -88
79 0 15 3 28 8 28 4 -1 50 -26 102 -58z m-224 -770 c-33 -33 -36 -6 -36 353
l0 354 23 16 22 15 3 -362 c2 -302 0 -364 -12 -376z m-1156 393 c219 -124 260
-153 260 -181 0 -23 -28 -16 -103 27 -475 274 -467 269 -453 305 5 14 10 13
38 -4 18 -11 134 -77 258 -147z m1322 116 c418 -239 408 -232 408 -263 0 -28
-21 -22 -117 33 -48 28 -104 61 -123 71 -189 108 -220 130 -220 154 0 29 9 30
52 5z m1126 -37 c-2 -21 -33 -42 -211 -144 -114 -66 -212 -120 -217 -120 -18
0 -10 36 13 57 12 11 96 62 187 113 91 51 176 101 190 111 30 21 40 16 38 -17z
m-2638 -86 c78 -46 89 -57 90 -80 0 -16 -2 -28 -5 -28 -7 0 -138 72 -167 92
-27 19 -40 68 -18 68 6 0 50 -24 100 -52z m1543 -11 c40 -24 107 -63 150 -87
68 -39 77 -47 77 -73 0 -36 1 -37 -149 52 -64 38 -126 74 -138 80 -16 8 -23
21 -23 41 0 17 3 30 6 30 3 0 38 -19 77 -43z m-804 -723 c-6 -8 -18 -14 -25
-14 -12 0 -14 57 -14 333 l0 334 23 10 22 10 3 -330 c2 -235 -1 -334 -9 -343z
m1641 559 c0 -29 -4 -33 -118 -95 -43 -25 -53 -27 -58 -14 -3 8 -2 22 3 31 8
14 149 103 166 104 4 1 7 -11 7 -26z m-1170 -157 c0 -100 -3 -128 -16 -140 -8
-9 -20 -14 -25 -11 -5 4 -9 60 -9 125 0 111 1 120 22 134 12 9 24 16 25 16 2
0 3 -56 3 -124z m-1205 34 c17 -10 118 -68 225 -129 190 -109 220 -131 220
-158 0 -25 -36 -13 -140 48 -123 72 -261 152 -344 200 -65 38 -82 58 -73 84 7
16 10 15 45 -5 20 -13 51 -31 67 -40z m-67 -78 c15 -11 52 -33 82 -49 157 -86
170 -96 170 -125 0 -15 -3 -28 -7 -28 -5 1 -71 38 -148 83 -120 71 -140 86
-143 110 -4 32 9 34 46 9z m55 -326 c39 -24 146 -86 237 -138 211 -120 209
-120 216 -141 10 -33 -11 -42 -44 -18 -17 11 -33 21 -36 21 -4 0 -39 20 -79
44 -39 24 -137 80 -217 126 -163 93 -180 105 -180 132 0 28 24 22 103 -26z
m1167 -63 c0 -26 -16 -37 -173 -126 -94 -54 -189 -108 -209 -120 -28 -17 -40
-19 -49 -10 -8 8 -8 16 -1 30 9 16 406 253 425 253 4 0 7 -12 7 -27z m-1100
-93 c63 -37 142 -83 174 -101 49 -28 59 -39 60 -62 2 -35 -8 -32 -143 48 -58
34 -139 81 -179 104 -75 43 -89 59 -78 86 7 19 3 20 166 -75z m823 -207 c-53
-40 -146 -84 -155 -75 -19 19 11 51 90 96 l77 45 3 -26 c3 -18 -3 -32 -15 -40z"/>
<path d="M4669 3696 c-44 -23 -504 -288 -542 -312 l-37 -25 2 -242 c3 -212 5
-242 19 -245 9 -1 58 22 110 52 l94 54 3 -30 c3 -22 14 -36 49 -59 l47 -29 45
27 c25 15 58 34 73 42 32 18 37 47 9 56 -33 10 -53 41 -47 72 6 23 26 39 111
88 l105 60 0 247 c0 136 -4 249 -8 252 -5 3 -19 -1 -33 -8z m29 -252 l-3 -209
-279 -162 c-154 -89 -283 -160 -288 -157 -4 3 -8 99 -8 213 0 158 3 211 13
219 39 33 553 320 559 314 5 -5 7 -103 6 -218z"/>
<path d="M4955 3105 c-33 -14 -75 -28 -93 -31 -19 -4 -36 -13 -39 -21 -10 -25
44 -121 79 -143 l33 -20 16 21 c10 14 24 20 40 17 36 -5 39 -56 5 -83 -24 -19
-25 -21 -9 -52 11 -23 26 -36 50 -42 65 -18 100 10 132 106 28 82 28 162 0
197 -11 14 -16 26 -10 26 6 0 11 5 11 11 0 6 -8 8 -18 5 -12 -4 -26 1 -37 14
-25 28 -85 26 -160 -5z"/>
<path d="M4568 2887 c-200 -115 -228 -133 -228 -148 0 -9 133 -89 149 -89 15
0 344 190 353 204 14 20 9 38 -8 32 -9 -3 -38 6 -65 21 l-49 26 30 19 c31 18
55 24 47 11 -3 -5 6 -9 19 -9 33 -2 30 2 -15 25 l-38 20 -195 -112z m202 95
c0 -5 -12 -14 -27 -21 l-28 -12 25 21 c29 22 30 23 30 12z m-64 -41 c-3 -4 7
-14 22 -20 l27 -13 -27 -14 c-26 -13 -58 -10 -58 6 0 4 7 11 16 14 9 4 14 9
11 12 -5 5 -47 -15 -57 -27 -3 -4 -25 -17 -50 -29 -25 -12 -57 -31 -72 -41
-15 -11 -29 -15 -32 -10 -4 5 2 12 13 16 11 3 36 17 57 31 36 25 143 84 151
84 2 0 2 -4 -1 -9z m-5 -71 c22 -12 45 -18 50 -14 8 4 7 9 -1 14 -8 5 2 8 23
7 21 0 37 -3 37 -6 0 -4 -37 -26 -82 -51 -142 -77 -172 -95 -201 -114 -28 -19
-29 -19 -77 4 -28 13 -50 27 -50 32 0 4 -7 8 -15 8 -8 0 -15 5 -15 10 0 13 17
13 25 0 4 -7 24 -1 53 17 113 66 197 113 205 113 4 0 26 -9 48 -20z m-255 -82
c-21 -11 -40 -17 -42 -15 -8 8 60 46 70 40 5 -3 -8 -15 -28 -25z"/>
<path d="M3710 2674 c-63 -36 -118 -71 -122 -77 -5 -7 -7 -61 -6 -121 l3 -109
170 -98 c94 -54 175 -99 181 -99 15 0 237 129 247 144 4 6 6 60 5 120 l-3 109
-170 98 c-93 54 -174 99 -180 99 -5 0 -62 -30 -125 -66z m250 -36 c65 -38 105
-67 100 -72 -11 -11 -232 113 -224 126 8 12 6 13 124 -54z m-58 -14 c43 -25
75 -50 72 -55 -5 -9 -122 49 -166 83 -21 16 -21 18 -4 18 11 0 55 -21 98 -46z
m-92 6 c14 -11 31 -20 38 -20 6 0 12 -4 12 -10 0 -5 -6 -10 -12 -10 -18 0 -98
43 -98 52 0 15 35 7 60 -12z m-65 -11 c10 -14 1 -21 -19 -13 -9 3 -13 10 -10
15 7 12 21 11 29 -2z m28 -61 c47 -28 66 -44 55 -46 -17 -3 -142 61 -154 79
-13 21 32 6 99 -33z"/>
<path d="M4997 2685 c-65 -18 -128 -40 -140 -48 -13 -8 -49 -57 -80 -110 -63
-103 -64 -121 -16 -166 29 -27 47 -26 76 1 29 27 34 22 26 -26 -6 -36 -7 -37
-37 -32 -28 5 -37 1 -76 -41 -50 -51 -96 -83 -122 -83 -10 0 -32 13 -51 30
-34 29 -44 31 -115 15 -39 -9 -55 -64 -48 -164 4 -47 8 -147 11 -221 3 -74 8
-143 11 -154 6 -18 1 -18 -92 -12 -78 6 -103 4 -118 -7 -30 -22 -13 -45 51
-73 32 -14 72 -32 88 -41 89 -49 105 -55 134 -48 43 9 62 35 55 73 -7 37 -5
36 -39 20 -31 -14 -75 3 -75 30 0 15 6 17 34 14 42 -5 76 12 76 38 0 26 1 25
57 -10 82 -52 153 -33 153 41 0 36 -2 39 -19 29 -26 -14 -64 -13 -79 2 -23 23
-13 35 28 34 42 -1 56 8 62 37 2 13 -13 28 -54 52 l-58 34 0 -49 c0 -53 -2
-55 -58 -44 l-30 6 6 65 c4 54 2 67 -12 75 -15 9 -23 58 -10 71 3 3 49 -10
102 -30 284 -103 355 -117 447 -89 29 8 41 18 43 34 4 28 -5 28 -49 -2 -26
-18 -40 -21 -52 -15 -15 9 -17 34 -17 245 l0 236 29 25 c16 15 74 51 128 83
92 53 98 58 95 86 -9 86 -43 124 -109 123 -21 0 -91 -15 -156 -34z"/>
<path d="M5213 2014 c-27 -16 -43 -33 -43 -45 0 -10 4 -19 8 -19 12 0 82 69
82 80 0 13 2 13 -47 -16z"/>
<path d="M5084 1585 l-38 -23 39 -16 c37 -16 40 -16 52 0 17 23 16 51 -1 57
-7 3 -31 -5 -52 -18z"/>
<path d="M4706 1584 c-20 -19 -20 -18 -1 -54 10 -20 23 -30 38 -30 49 0 64 52
22 72 -14 6 -25 15 -25 20 0 13 -17 9 -34 -8z"/>
<path d="M5228 1433 c-23 -4 -28 -9 -28 -32 0 -15 9 -36 20 -46 17 -15 24 -16
45 -7 15 7 25 20 25 32 0 25 -17 61 -28 59 -4 -1 -19 -4 -34 -6z"/>
<path d="M4659 1364 c-12 -32 -2 -53 29 -61 30 -7 65 28 60 61 -2 17 -11 21
-41 22 -32 1 -40 -3 -48 -22z"/>
<path d="M4958 1309 c-24 -13 -23 -54 2 -79 17 -17 24 -18 45 -8 36 16 32 78
-5 78 -10 0 -20 4 -22 9 -2 6 -10 6 -20 0z"/>
</g>
</svg>
